<svg width="1250" height="670" viewBox="0 0 125 67" fill="none" xmlns="http://www.w3.org/2000/svg">
  <g filter="url(#filter0_i_101_6)">
    <rect y="9" width="50" height="50" rx="25" fill="#894CEA" />
  </g>
  <path
    d="M60.064 18.4H66.4V29.2C67.104 28.56 67.76 28.112 68.368 27.856C69.008 27.6 69.952 27.472 71.2 27.472H75.04C76.384 28.784 77.44 30.48 78.208 32.56C78.976 34.64 79.36 36.928 79.36 39.424C79.36 44.768 77.76 48.96 74.56 52H70C68.432 52 67.12 51.408 66.064 50.224L65.2 52H60.064V18.4ZM66.448 46.96H71.056C72.24 44.944 72.832 42.496 72.832 39.616C72.832 36.736 72.224 34.368 71.008 32.512H66.448V46.96ZM82.42 38.512V27.472H88.804V38.56C88.804 41.344 89.364 43.664 90.484 45.52H93.316C94.372 43.696 94.9 41.376 94.9 38.56V27.472H101.284V38.176C101.284 40.576 100.964 42.688 100.324 44.512C99.716 46.336 98.708 48.4 97.3 50.704L94.084 55.936C93.508 56.928 92.9 57.664 92.26 58.144C91.62 58.624 90.788 58.976 89.764 59.2H82.18V54.16H87.364C88.036 53.968 88.596 53.632 89.044 53.152C89.492 52.672 89.956 51.984 90.436 51.088L90.724 50.56H87.412C85.876 49.312 84.66 47.632 83.764 45.52C82.868 43.376 82.42 41.04 82.42 38.512ZM111.588 18.4V52H105.252V18.4H111.588ZM115.561 44.896H122.473V52H115.561V44.896Z"
    fill="white" />
  <path
    d="M14.0237 30.099C14.1895 28.2041 15.86 26.8024 17.7549 26.9681L32.6275 28.2693C33.1777 28.3175 33.5846 28.8025 33.5365 29.3527L33.5099 29.6567C33.3655 31.3073 31.9104 32.5283 30.2599 32.3839L14.8064 31.0319C14.3327 30.9904 13.9822 30.5728 14.0237 30.099V30.099Z"
    fill="white" />
  <path
    d="M16.1763 39.7858C16.342 37.8908 18.0126 36.4891 19.9075 36.6549L34.9185 37.9681C35.3922 38.0096 35.7427 38.4272 35.7012 38.901V38.901C35.5354 40.7959 33.8649 42.1976 31.9699 42.0319L16.959 40.7186C16.4853 40.6771 16.1348 40.2595 16.1763 39.7858V39.7858Z"
    fill="white" />
  <defs>
    <filter id="filter0_i_101_6" x="0" y="9" width="50" height="50" filterUnits="userSpaceOnUse"
      color-interpolation-filters="sRGB">
      <feFlood flood-opacity="0" result="BackgroundImageFix" />
      <feBlend mode="normal" in="SourceGraphic" in2="BackgroundImageFix" result="shape" />
      <feColorMatrix in="SourceAlpha" type="matrix" values="0 0 0 0 0 0 0 0 0 0 0 0 0 0 0 0 0 0 127 0"
        result="hardAlpha" />
      <feMorphology radius="4" operator="dilate" in="SourceAlpha" result="effect1_innerShadow_101_6" />
      <feOffset dx="-7" dy="3" />
      <feGaussianBlur stdDeviation="2" />
      <feComposite in2="hardAlpha" operator="arithmetic" k2="-1" k3="1" />
      <feColorMatrix type="matrix" values="0 0 0 0 0.681486 0 0 0 0 0.646389 0 0 0 0 0.745833 0 0 0 0.2 0" />
      <feBlend mode="normal" in2="shape" result="effect1_innerShadow_101_6" />
    </filter>
  </defs>
</svg>